<?xml version="1.0" encoding="UTF-8" standalone="no"?>
<!-- Created with Inkscape (http://www.inkscape.org/) -->

<svg
   xmlns:dc="http://purl.org/dc/elements/1.1/"
   xmlns:cc="http://creativecommons.org/ns#"
   xmlns:rdf="http://www.w3.org/1999/02/22-rdf-syntax-ns#"
   xmlns:svg="http://www.w3.org/2000/svg"
   xmlns="http://www.w3.org/2000/svg"
   xmlns:sodipodi="http://sodipodi.sourceforge.net/DTD/sodipodi-0.dtd"
   xmlns:inkscape="http://www.inkscape.org/namespaces/inkscape"
   width="210mm"
   height="297mm"
   viewBox="0 0 210 297"
   version="1.1"
   id="svg8"
   inkscape:version="0.92.5 (2060ec1f9f, 2020-04-08)"
   sodipodi:docname="bot-icon.svg">
  <defs
     id="defs2" />
  <sodipodi:namedview
     id="base"
     pagecolor="#ffffff"
     bordercolor="#666666"
     borderopacity="1.0"
     inkscape:pageopacity="0.0"
     inkscape:pageshadow="2"
     inkscape:zoom="0.98994949"
     inkscape:cx="280.70729"
     inkscape:cy="665.46604"
     inkscape:document-units="mm"
     inkscape:current-layer="layer1"
     showgrid="false"
     inkscape:window-width="1920"
     inkscape:window-height="1022"
     inkscape:window-x="0"
     inkscape:window-y="0"
     inkscape:window-maximized="1" />
  <metadata
     id="metadata5">
    <rdf:RDF>
      <cc:Work
         rdf:about="">
        <dc:format>image/svg+xml</dc:format>
        <dc:type
           rdf:resource="http://purl.org/dc/dcmitype/StillImage" />
        <dc:title></dc:title>
      </cc:Work>
    </rdf:RDF>
  </metadata>
  <g
     inkscape:label="Ebene 1"
     inkscape:groupmode="layer"
     id="layer1">
    <path
       id="path815"
       d="m 28.877383,81.401459 h 8.466666 v 50.800001 h -8.466666 a 8.4565225,8.4565225 0 0 1 -8.466667,-8.46667 V 89.868125 a 8.4565225,8.4565225 0 0 1 8.466667,-8.466666 z m 135.466657,-12.7 v 71.966661 a 16.950076,16.950076 0 0 1 -16.93333,16.93334 H 62.744049 A 16.950076,16.950076 0 0 1 45.810716,140.66812 V 68.701459 A 21.159787,21.159787 0 0 1 66.977383,47.534792 H 96.610716 V 30.601459 a 8.4666667,8.4666667 0 0 1 16.933334,0 v 16.933333 h 29.63333 a 21.159787,21.159787 0 0 1 21.16666,21.166667 z M 90.260716,89.868125 A 10.583333,10.583333 0 1 0 79.677383,100.45146 10.58254,10.58254 0 0 0 90.260716,89.868125 Z M 88.144049,123.73479 H 71.210716 v 8.46667 h 16.933333 z m 25.400001,0 H 96.610716 v 8.46667 h 16.933334 z m 27.51666,-33.866665 a 10.583333,10.583333 0 1 0 -10.58333,10.583335 10.58254,10.58254 0 0 0 10.58333,-10.583335 z m -2.11667,33.866665 h -16.93333 v 8.46667 h 16.93333 z m 50.8,-33.866665 v 33.866665 a 8.4565225,8.4565225 0 0 1 -8.46666,8.46667 h -8.46667 V 81.401459 h 8.46667 a 8.4565225,8.4565225 0 0 1 8.46666,8.466666 z"
       inkscape:connector-curvature="0"
       style="fill:#999999;stroke-width:0.26458332"
       inkscape:export-xdpi="96"
       inkscape:export-ydpi="96" />
    <path
       id="path826"
       d="m 42.080101,139.88664 c -2.51355,-0.18968 -4.70959,1.08638 -4.70959,2.74181 l -0.0265,5.56985 c 0,1.39676 1.56105,2.56937 3.67771,2.75905 1.29646,0.12071 6.338666,1.17886 8.190746,1.45476 v 51.42164 c -1.82562,0.2759 -6.894286,2.0633 -8.190746,2.16676 -2.11666,0.18969 -3.70416,1.36229 -3.67771,2.75906 l 0.0265,5.56984 c 0,1.65544 2.19604,2.94874 4.70959,2.74181 10.0277,-0.79323 34.13124,-4.41449 54.953955,-20.50323 -3.28083,-3.03496 -6.402925,-6.39756 -9.366255,-10.0878 -1.21708,1.06914 -2.48708,1.96583 -3.75708,2.9315 v -22.00347 c 4.78895,3.67299 9.419165,8.10473 13.599585,13.57111 22.621854,29.67709 57.890804,35.12623 70.564344,36.12638 2.51355,0.18969 4.70959,-1.08637 4.70959,-2.74181 l 0.0265,-5.58709 c 0,-1.39677 -1.56105,-2.56937 -3.67771,-2.75905 -1.29646,-0.12071 -6.33867,-1.17885 -8.19075,-1.45476 v -52.48104 c 1.85208,-0.2759 6.86783,-0.98666 8.19075,-1.10737 2.11666,-0.18968 3.70416,-1.36228 3.67771,-2.75905 l -0.0265,-5.56984 c 0,-1.65544 -2.19604,-2.94874 -4.70959,-2.75906 -11.35062,0.89669 -40.71936,5.3974 -62.99728,27.57331 C 82.799471,145.30129 53.430721,140.78333 42.080101,139.88664 Z m 72.628109,38.60953 c 3.62479,-4.32826 7.51416,-8.00126 11.53583,-11.08795 v 22.15867 c -4.02167,-3.06945 -7.9375,-6.74244 -11.53583,-11.07072 z m 32.7025,22.60701 c -2.75167,-1.00015 -5.58271,-2.20724 -8.46667,-3.62125 v -37.95426 c 2.88396,-1.43127 5.715,-2.63834 8.46667,-3.62126 z M 62.744051,155.88916 c 2.75167,1.00017 5.58271,2.20724 8.46667,3.62126 v 37.83356 c -2.88396,1.43125 -5.715,2.65558 -8.46667,3.65575 z"
       inkscape:connector-curvature="0"
       style="fill:#008000;stroke-width:0.21360011"
       sodipodi:nodetypes="ccccccccccccccccccccccccccccccccccccccccc"
       inkscape:export-xdpi="96"
       inkscape:export-ydpi="96" />
  </g>
</svg>
